<?xml version="1.0" encoding="UTF-8" standalone="no"?>
<!-- Uploaded to: SVG Repo, www.svgrepo.com, Transformed by: SVG Repo Mixer Tools -->

<svg
   width="800"
   height="800.00006"
   viewBox="0 0 20 20.000002"
   version="1.1"
   fill="#ffffff"
   id="svg1"
   xml:space="preserve"
   xmlns="http://www.w3.org/2000/svg"
   xmlns:svg="http://www.w3.org/2000/svg"><defs
     id="defs2" /><g
     style="fill:#ffffff"
     id="g2"
     transform="matrix(1.1111111,0,0,1.1111111,1.1531957,-1.9126861)"><g
       id="SVGRepo_bgCarrier-5"
       stroke-width="0" /><g
       id="SVGRepo_tracerCarrier-3"
       stroke-linecap="round"
       stroke-linejoin="round" /><g
       id="SVGRepo_iconCarrier-5"><title
         id="title1-6">social_facebook</title><path
         d="M 0.96212605,1.7214175 H 14.962126 a 2,2 0 0 1 2,2 V 17.721418 a 2,2 0 0 1 -2,2 H 0.96212605 a 2,2 0 0 1 -2.00000005,-2 V 3.7214175 a 2,2 0 0 1 2.00000005,-2 m 12.99999995,2 h -2.5 A 3.5,3.5 0 0 0 7.9621261,7.2214176 v 2.5 h -2 v 3.0000004 h 2 v 7 h 2.9999999 v -7 h 3 V 9.7214176 h -3 v -2 a 1,1 0 0 1 1,-1 h 2 z"
         id="path1"
         style="fill:#ffffff" /></g></g></svg>
