<?xml version="1.0" encoding="UTF-8" standalone="no"?>
<!-- Uploaded to: SVG Repo, www.svgrepo.com, Transformed by: SVG Repo Mixer Tools -->

<svg
   width="800.00018"
   height="799.99994"
   viewBox="0 0 20.000005 19.999998"
   version="1.1"
   fill="#ffffff"
   id="svg1"
   xml:space="preserve"
   xmlns="http://www.w3.org/2000/svg"
   xmlns:svg="http://www.w3.org/2000/svg"><defs
     id="defs2" /><g
     id="g5"
     transform="translate(-34.923438,-1.5022461)"><path
       d="m 44.900537,8.7680664 c -1.508519,0 -2.731055,1.2203272 -2.731055,2.7242676 0,1.504764 1.222536,2.725146 2.731055,2.725146 1.508527,0 2.731055,-1.220382 2.731055,-2.725146 0,-1.5039404 -1.222528,-2.7242676 -2.731055,-2.7242676 z"
       style="baseline-shift:baseline;display:inline;overflow:visible;vector-effect:none;enable-background:accumulate;stop-color:#000000;stop-opacity:1"
       id="path5" /><path
       d="m 43.866211,4.7261719 c -3.377163,0.013707 -4.126267,0.3922747 -4.74082,1.0053222 -0.662079,0.662004 -0.852255,1.5194451 -0.894825,2.4578125 -0.04342,0.9579664 -0.204847,6.8781894 0.281885,8.1247074 0.281049,0.723354 0.827597,1.26775 1.555225,1.550537 0.289251,0.111995 0.722713,0.24502 1.521631,0.28125 7.251731,0.332608 8.957755,0.06858 9.699316,-1.831787 0.112258,-0.288551 0.245815,-0.720897 0.281885,-1.517871 C 51.901543,7.6154704 51.49509,6.5488084 50.675684,5.7314941 50.011968,5.0710547 49.152449,4.881737 48.211768,4.838916 46.409693,4.7575757 44.991932,4.7216028 43.866211,4.7261719 Z m 5.408301,1.4221679 c 0.543265,0 0.984131,0.4397438 0.984131,0.9808594 0,0.5411156 -0.440866,0.9808106 -0.984131,0.9808106 -0.543265,0 -0.983301,-0.439695 -0.983301,-0.9808106 0,-0.5411156 0.440036,-0.9808594 0.983301,-0.9808594 z m -4.373975,1.1476563 c 2.323832,0 4.207666,1.8782948 4.207666,4.1963379 0,2.318126 -1.883834,4.197217 -4.207666,4.197217 -2.323824,0 -4.207666,-1.879091 -4.207666,-4.197217 0,-2.3180431 1.883842,-4.1963379 4.207666,-4.1963379 z"
       style="baseline-shift:baseline;display:inline;overflow:visible;vector-effect:none;enable-background:accumulate;stop-color:#000000;stop-opacity:1"
       id="path4" /><path
       d="m 37.145654,1.5022461 c -1.2273,0 -2.222217,0.9949173 -2.222217,2.2222168 V 19.280029 c 0,1.2273 0.994917,2.222217 2.222217,2.222217 h 15.555567 c 1.227299,0 2.222217,-0.994918 2.222217,-2.222217 V 3.7244629 C 54.923437,2.4971634 53.92852,1.5022461 52.701221,1.5022461 Z m 8.202295,1.7651367 c 4.614354,5.889e-4 5.551293,0.6060278 6.37085,1.423584 1.271692,1.2702341 1.659278,2.8559087 1.325781,10.1713872 -0.03851,0.870512 -0.177779,1.464749 -0.380176,1.984619 -1.140609,2.920426 -3.845484,3.100288 -11.142285,2.770068 -0.872661,-0.04002 -1.467527,-0.177368 -1.988672,-0.380029 -1.116843,-0.432415 -1.96577,-1.28335 -2.396777,-2.390039 -0.639136,-1.640476 -0.418726,-7.8958576 -0.381006,-8.7238773 0.06064,-1.3265608 0.384284,-2.492938 1.325781,-3.4321289 0.938211,-0.9342499 2.10013,-1.2616206 3.440674,-1.3225586 1.500279,-0.069111 2.760979,-0.1011613 3.82583,-0.1010254 z"
       style="baseline-shift:baseline;display:inline;overflow:visible;vector-effect:none;enable-background:accumulate;stop-color:#000000;stop-opacity:1"
       id="path3" /></g></svg>
