<?xml version="1.0" encoding="UTF-8" standalone="no"?>
<!-- Generator: Adobe Illustrator 27.5.0, SVG Export Plug-In . SVG Version: 6.00 Build 0)  -->

<svg
   version="1.1"
   x="0px"
   y="0px"
   viewBox="0 0 500 500"
   style="enable-background:new 0 0 500 500;"
   xml:space="preserve"
   id="svg139"
   sodipodi:docname="3935533_2082301.svg"
   inkscape:version="1.4 (86a8ad7, 2024-10-11)"
   xmlns:inkscape="http://www.inkscape.org/namespaces/inkscape"
   xmlns:sodipodi="http://sodipodi.sourceforge.net/DTD/sodipodi-0.dtd"
   xmlns="http://www.w3.org/2000/svg"
   xmlns:svg="http://www.w3.org/2000/svg"><defs
   id="defs139" /><sodipodi:namedview
   id="namedview139"
   pagecolor="#ffffff"
   bordercolor="#000000"
   borderopacity="0.25"
   inkscape:showpageshadow="2"
   inkscape:pageopacity="0.0"
   inkscape:pagecheckerboard="0"
   inkscape:deskcolor="#d1d1d1"
   inkscape:zoom="1.644"
   inkscape:cx="249.39173"
   inkscape:cy="201.3382"
   inkscape:window-width="1920"
   inkscape:window-height="1017"
   inkscape:window-x="-8"
   inkscape:window-y="-8"
   inkscape:window-maximized="1"
   inkscape:current-layer="g121" />
<g
   id="BACKGROUND">
	<g
   id="g10">
		<g
   id="g1">
			<path
   style="fill:#EEECFE;"
   d="M436.889,199.519c-0.42,6.4-1.48,12.76-3.14,18.97c-3.04,11.46-8.1,22.39-14.86,32.14     c-4.1,5.94-8.84,11.44-14.14,16.35c-1.7,1.58-3.46,3.07-5.27,4.49c-7.35,5.75-15.55,10.2-24.2,13.6     c-7.39,2.9-15.11,5.04-22.92,6.59c-1.1,0.22-2.23,0.41-3.37,0.58c-9.31,1.38-19.82,1.29-29.75,2.57     c-8.35,1.07-16.29,3.09-22.78,7.76c-0.8,0.58-1.57,1.19-2.3,1.83c-8.74,7.64-12.48,19.45-15.4,31.07     c-1.31,5.21-2.45,10.38-3.8,15.12c-2.11,7.42-4.47,14.84-7.44,21.96c-4.01,9.62-9.15,18.68-16.37,26.42     c-0.3,0.32-0.6,0.64-0.91,0.95c-6.37,6.57-13.89,11.67-22.04,15.59c-8.43,4.05-17.53,6.83-26.71,8.64     c-1.25,0.25-2.51,0.48-3.77,0.69c-8.95,1.51-17.47,1.31-25.8-0.05c-11.47-1.87-22.6-5.92-34.01-10.67     c-0.86-0.36-1.73-0.72-2.59-1.09c-0.16-0.07-0.31-0.13-0.47-0.2c-13.71-5.89-27.77-12.96-40.75-21.55     c-17.04-11.28-32.24-25.17-42.44-42.45c-10.86-18.4-13.38-39.07-7.74-57.27c3.06-9.92,8.54-19.1,16.43-26.77     c3.59-3.51,7.68-6.7,12.27-9.5c3.55-2.17,7.2-4.21,10.85-6.25c7.88-4.44,15.75-8.9,22.48-14.74c1.59-1.37,3.11-2.82,4.56-4.37     c5.95-6.35,10.19-13.85,13.24-21.94c4.31-11.41,6.27-24,7.32-36.22c0.21-2.5,0.4-5,0.57-7.51c1.15-16.43,1.81-33.06,6.56-48.66     c0.59-1.96,1.25-3.89,1.98-5.81c1.51-3.96,3.31-7.78,5.37-11.45c2.32-4.15,4.97-8.11,7.88-11.89c4.31-5.63,9.2-10.84,14.43-15.64     c1.98-1.82,4-3.6,6.06-5.33c6.93-5.84,14.28-11.15,22.03-15.64c8.06-4.67,16.55-8.47,25.47-11.08     c5.95-1.75,12.09-2.97,18.42-3.57c3.14-0.3,6.28-0.47,9.42-0.51c11.06-0.18,22.07,1.16,32.87,3.63     c12.37,2.82,24.47,7.11,36.09,12.29c7.46,3.32,14.73,7.01,21.75,10.91c7.47,4.15,14.75,8.81,21.77,13.88     c15.6,11.27,29.91,24.59,42.13,39.08C423.849,138.169,438.989,167.759,436.889,199.519z"
   id="path1" />
		</g>
		<g
   id="g9">
			<path
   style="fill:#EEECFE;"
   d="M134.849,412.829c-13.71-5.89-27.77-12.96-40.75-21.55l-50.18-99.72     c3.06-9.92,8.54-19.1,16.43-26.77L134.849,412.829z"
   id="path2" />
			<path
   style="fill:#EEECFE;"
   d="M201.489,424.149c-1.25,0.25-2.51,0.48-3.77,0.69c-8.95,1.51-17.47,1.31-25.8-0.05l-88.45-175.75     c7.88-4.44,15.75-8.9,22.48-14.74L201.489,424.149z"
   id="path3" />
			<path
   style="fill:#EEECFE;"
   d="M250.239,399.919c-6.37,6.57-13.89,11.67-22.04,15.59l-104.45-207.52     c4.31-11.41,6.27-24,7.32-36.22c0.21-2.5,0.4-5,0.57-7.51L250.239,399.919z"
   id="path4" />
			<path
   style="fill:#EEECFE;"
   d="M278.759,335.469c-1.31,5.21-2.45,10.38-3.8,15.12c-2.11,7.42-4.47,14.84-7.44,21.96     l-129.32-256.95c0.59-1.96,1.25-3.89,1.98-5.81c1.51-3.96,3.31-7.78,5.37-11.45c2.32-4.15,4.97-8.11,7.88-11.89L278.759,335.469z     "
   id="path5" />
			<path
   style="fill:#EEECFE;"
   d="M319.239,294.809c-8.35,1.07-16.29,3.09-22.78,7.76c-0.8,0.58-1.57,1.19-2.3,1.83l-120.24-238.92     c6.93-5.84,14.28-11.15,22.03-15.64L319.239,294.809z"
   id="path6" />
			<path
   style="fill:#EEECFE;"
   d="M375.279,285.069c-7.39,2.9-15.11,5.04-22.92,6.59c-1.1,0.22-2.23,0.41-3.37,0.58l-127.57-253.48     c5.95-1.75,12.09-2.97,18.42-3.57c3.14-0.3,6.28-0.47,9.42-0.51L375.279,285.069z"
   id="path7" />
			<path
   style="fill:#EEECFE;"
   d="M418.889,250.629c-4.1,5.94-8.84,11.44-14.14,16.35c-1.7,1.58-3.46,3.07-5.27,4.49l-117.35-233.16     c12.37,2.82,24.47,7.11,36.09,12.29L418.889,250.629z"
   id="path8" />
			<path
   style="fill:#EEECFE;"
   d="M436.889,199.519c-0.42,6.4-1.48,12.76-3.14,18.97l-72.01-143.1     c15.6,11.27,29.91,24.59,42.13,39.08C423.849,138.169,438.989,167.759,436.889,199.519z"
   id="path9" />
		</g>
	</g>
</g>
<g
   id="OBJECTS">
	<g
   id="g17">
		<g
   id="g11">
			<path
   style="fill:#7E6CC0;"
   d="M187.458,131.193c-0.439-1.948-1.053-3.808-1.8-5.584l5.352-4.603l-13.525-15.72l-5.49,4.719     c-4.09-2.406-8.7-3.937-13.533-4.414l-1.606-7.122l-20.232,4.563l1.606,7.122c-3.658,2.204-6.809,5.065-9.32,8.395l-6.885-2.274     l-6.512,19.692l6.715,2.221c-0.017,2.482,0.236,5.007,0.806,7.533c0.395,1.752,0.928,3.442,1.572,5.058l-5.26,4.527l13.526,15.72     l5.134-4.414c4.208,2.58,8.993,4.216,14.019,4.711l1.47,6.52l20.232-4.563l-1.47-6.52c3.825-2.296,7.091-5.323,9.656-8.847     l6.42,2.124l6.512-19.692l-6.577-2.174C188.245,135.869,187.986,133.534,187.458,131.193z M160.128,160.123     c-12.128,2.735-24.184-4.879-26.92-17.013c-2.736-12.133,4.885-24.185,17.012-26.92c12.133-2.736,24.184,4.879,26.92,17.013     C179.877,145.337,172.262,157.387,160.128,160.123z"
   id="path10" />
			<path
   style="fill:#7E6CC0;"
   d="M404.068,256.112c0.045-1.552-0.059-3.072-0.279-4.554l4.921-2.436l-7.159-14.453l-5.047,2.497     c-2.618-2.602-5.796-4.644-9.346-5.936l0.163-5.676l-16.124-0.464l-0.163,5.676c-3.181,0.955-6.107,2.503-8.642,4.528     l-4.749-3.041l-8.704,13.581l4.631,2.969c-0.492,1.867-0.788,3.818-0.846,5.831c-0.04,1.396,0.035,2.772,0.209,4.114     l-4.836,2.397l7.159,14.453l4.719-2.335c2.673,2.756,5.963,4.911,9.654,6.253l-0.15,5.197l16.124,0.464l0.15-5.196     c3.325-0.992,6.37-2.643,8.982-4.804l4.428,2.839l8.704-13.581l-4.536-2.906C403.759,259.787,404.014,257.978,404.068,256.112z      M377.897,272.639c-9.665-0.278-17.28-8.34-17.002-18.01c0.278-9.67,8.345-17.28,18.01-17.002     c9.67,0.278,17.28,8.34,17.002,18.01C395.628,265.307,387.566,272.918,377.897,272.639z"
   id="path11" />
		</g>
		<g
   id="g13">
			<path
   style="fill:#F3CF58;"
   d="M379.57,338.618c0.767-1.844,1.341-3.716,1.758-5.597l7.028-0.663l-1.953-20.646l-7.208,0.678     c-1.947-4.328-4.825-8.24-8.494-11.423l2.805-6.74l-19.148-7.969l-2.805,6.74c-4.259-0.315-8.484,0.198-12.458,1.465     l-4.305-5.835l-16.694,12.308l4.197,5.694c-1.449,2.016-2.701,4.223-3.696,6.613c-0.69,1.658-1.232,3.345-1.64,5.036     l-6.909,0.655l1.953,20.646l6.74-0.635c1.943,4.538,4.903,8.638,8.719,11.947l-2.568,6.171l19.148,7.969l2.568-6.171     c4.449,0.337,8.863-0.246,12.993-1.64l4.012,5.444l16.694-12.308l-4.111-5.575C377.51,342.889,378.648,340.833,379.57,338.618z      M340.547,346.434c-11.478-4.777-16.917-17.958-12.138-29.441c4.779-11.483,17.963-16.914,29.441-12.137     c11.483,4.779,16.917,17.958,12.138,29.441C365.21,345.78,352.031,351.213,340.547,346.434z"
   id="path12" />
			<path
   style="fill:#F3CF58;"
   d="M137.022,85.725c-0.179-0.795-0.43-1.553-0.734-2.277l2.183-1.877l-5.517-6.412l-2.239,1.925     c-1.668-0.982-3.548-1.606-5.52-1.8l-0.655-2.905l-8.253,1.861l0.655,2.905c-1.492,0.899-2.777,2.066-3.802,3.424l-2.808-0.928     l-2.656,8.032l2.739,0.906c-0.007,1.012,0.096,2.042,0.329,3.073c0.161,0.715,0.379,1.404,0.641,2.063l-2.146,1.847l5.517,6.412     l2.094-1.8c1.717,1.052,3.668,1.72,5.718,1.922l0.6,2.66l8.252-1.861l-0.6-2.66c1.56-0.937,2.893-2.171,3.939-3.609l2.619,0.866     l2.656-8.032l-2.683-0.887C137.343,87.632,137.237,86.68,137.022,85.725z M125.874,97.525c-4.947,1.116-9.864-1.99-10.98-6.939     c-1.116-4.949,1.993-9.865,6.939-10.98c4.949-1.116,9.864,1.99,10.98,6.939C133.93,91.494,130.824,96.409,125.874,97.525z"
   id="path13" />
		</g>
		<g
   id="g16">
			<linearGradient
   id="SVGID_1_"
   gradientUnits="userSpaceOnUse"
   x1="145.8145"
   y1="53.7464"
   x2="138.0136"
   y2="22.5338">
				<stop
   offset="0.0026"
   style="stop-color:#E16F5A"
   id="stop13" />
				<stop
   offset="1"
   style="stop-color:#F3CF58"
   id="stop14" />
			</linearGradient>
			<path
   style="fill:url(#SVGID_1_);"
   d="M160.408,73.335c-0.125-0.555-0.3-1.085-0.513-1.592l1.526-1.312l-3.855-4.481L156,67.296     c-1.166-0.686-2.48-1.122-3.857-1.258l-0.458-2.03l-5.767,1.3l0.458,2.03c-1.043,0.628-1.941,1.444-2.657,2.393l-1.963-0.648     l-1.856,5.613l1.914,0.633c-0.005,0.708,0.067,1.427,0.23,2.147c0.113,0.499,0.264,0.981,0.448,1.442l-1.499,1.29l3.855,4.481     l1.463-1.258c1.2,0.735,2.563,1.202,3.996,1.343l0.419,1.859l5.767-1.3l-0.419-1.859c1.09-0.655,2.021-1.517,2.752-2.522     l1.83,0.605l1.856-5.613l-1.875-0.62C160.632,74.668,160.558,74.003,160.408,73.335z M152.618,81.582     c-3.457,0.779-6.893-1.391-7.673-4.849c-0.78-3.458,1.392-6.894,4.849-7.673c3.458-0.78,6.893,1.391,7.673,4.849     C158.247,77.367,156.076,80.802,152.618,81.582z"
   id="path14" />
			
				<linearGradient
   id="SVGID_00000113324881558819161610000017818682000421492887_"
   gradientUnits="userSpaceOnUse"
   x1="378.9362"
   y1="301.7596"
   x2="491.8603"
   y2="301.7596">
				<stop
   offset="0.0026"
   style="stop-color:#E16F5A"
   id="stop15" />
				<stop
   offset="1"
   style="stop-color:#F3CF58"
   id="stop16" />
			</linearGradient>
			<path
   style="fill:url(#SVGID_00000113324881558819161610000017818682000421492887_);"
   d="M420.89,291.584     c-0.625-0.977-1.327-1.871-2.085-2.692l2.012-3.569l-10.487-5.909l-2.065,3.66c-2.708-0.506-5.526-0.431-8.258,0.264l-2.283-3.57     l-10.142,6.486l2.283,3.57c-1.561,1.925-2.716,4.109-3.429,6.423l-4.207,0.118l0.335,12.034l4.104-0.114     c0.481,1.358,1.118,2.686,1.927,3.953c0.562,0.878,1.186,1.695,1.857,2.45l-1.977,3.51l10.487,5.909l1.93-3.423     c2.807,0.577,5.742,0.525,8.582-0.197l2.09,3.269l10.142-6.486l-2.09-3.268c1.634-2.009,2.819-4.306,3.523-6.736l3.924-0.109     l-0.335-12.034l-4.019,0.112C422.243,293.981,421.64,292.757,420.89,291.584z M411.687,312.772     c-6.079,3.888-14.163,2.113-18.053-3.97c-3.89-6.082-2.11-14.165,3.969-18.053c6.082-3.89,14.163-2.113,18.053,3.969     C419.546,300.801,417.769,308.882,411.687,312.772z"
   id="path16" />
		</g>
	</g>
	<g
   id="g62">
		<g
   id="g61">
			<g
   id="g24">
				<g
   id="g23">
					
						<linearGradient
   id="SVGID_00000045583535854313665780000018052379878906661275_"
   gradientUnits="userSpaceOnUse"
   x1="432.0781"
   y1="24.7929"
   x2="204.1984"
   y2="302.9756">
						<stop
   offset="0.0214"
   style="stop-color:#3E345C"
   id="stop17" />
						<stop
   offset="0.1909"
   style="stop-color:#413761"
   id="stop18" />
						<stop
   offset="0.4032"
   style="stop-color:#4B4071"
   id="stop19" />
						<stop
   offset="0.6383"
   style="stop-color:#5C4E8A"
   id="stop20" />
						<stop
   offset="0.8881"
   style="stop-color:#7262AE"
   id="stop21" />
						<stop
   offset="1"
   style="stop-color:#7E6CC0"
   id="stop22" />
					</linearGradient>
					<path
   style="fill:url(#SVGID_00000045583535854313665780000018052379878906661275_);"
   d="M344.596,383.957h-172.4       c-6.763,0-12.246-5.483-12.246-12.246V101.916c0-6.763,5.483-12.246,12.246-12.246h172.4c6.763,0,12.246,5.483,12.246,12.246       v269.795C356.842,378.475,351.359,383.957,344.596,383.957z"
   id="path22" />
					<path
   style="fill:#3E245C;"
   d="M299.834,86.597h-1.802c0-3.642-2.983-6.618-6.625-6.618h-14.005       c-6.642,0-12.026-5.384-12.026-12.026v-0.286c0-2.347-0.962-4.475-2.499-6.02c-1.677-1.669-4.042-2.66-6.629-2.477       c-4.509,0.318-7.909,4.262-7.909,8.782l0,0c0,6.642-5.384,12.026-12.026,12.026h-14.006c-1.825,0-3.475,0.742-4.672,1.946       c-1.204,1.196-1.946,2.854-1.946,4.672h-1.802c-4.527,0-8.23,3.704-8.23,8.23v0.008c0,4.528,0,8.23,0,8.23h102.407v-8.238       C308.064,90.301,304.36,86.597,299.834,86.597z M256.857,74.96c-2.219,0-4.021-1.802-4.021-4.028       c0-2.218,1.802-4.021,4.021-4.021s4.021,1.802,4.021,4.021C260.877,73.158,259.075,74.96,256.857,74.96z"
   id="path23" />
				</g>
				<rect
   x="172.603"
   y="108.348"
   style="fill:#FFFFFF;"
   width="171.586"
   height="256.933"
   id="rect23" />
			</g>
			<g
   id="g60">
				<g
   id="g59">
					<g
   id="g31">
						<g
   id="g28">
							<path
   style="fill:#CCCCCC;"
   d="M276.592,216.694h-86.57c-0.902,0-1.641-0.738-1.641-1.641l0,0         c0-0.902,0.738-1.641,1.641-1.641h86.57c0.902,0,1.641,0.738,1.641,1.641l0,0         C278.232,215.955,277.494,216.694,276.592,216.694z"
   id="path24" />
							<path
   style="fill:#CCCCCC;"
   d="M214.567,223.003h-24.608c-0.868,0-1.577-0.71-1.577-1.577l0,0         c0-0.868,0.71-1.577,1.577-1.577h24.608c0.868,0,1.577,0.71,1.577,1.577l0,0         C216.145,222.294,215.435,223.003,214.567,223.003z"
   id="path25" />
							<path
   style="fill:#CCCCCC;"
   d="M272.491,223.003h-49.595c-0.868,0-1.577-0.71-1.577-1.577l0,0         c0-0.868,0.71-1.577,1.577-1.577h49.595c0.868,0,1.577,0.71,1.577,1.577l0,0         C274.068,222.294,273.358,223.003,272.491,223.003z"
   id="path26" />
							<path
   style="fill:#CCCCCC;"
   d="M233.875,229.313h-43.916c-0.868,0-1.577-0.71-1.577-1.577v0c0-0.867,0.71-1.577,1.577-1.577         h43.916c0.868,0,1.577,0.71,1.577,1.577v0C235.452,228.603,234.743,229.313,233.875,229.313z"
   id="path27" />
							<path
   style="fill:#CCCCCC;"
   d="M266.307,229.313h-22.589c-0.868,0-1.577-0.71-1.577-1.577v0c0-0.867,0.71-1.577,1.577-1.577         h22.589c0.868,0,1.577,0.71,1.577,1.577v0C267.884,228.603,267.175,229.313,266.307,229.313z"
   id="path28" />
						</g>
						<g
   id="g30">
							<path
   style="fill:#7E6CC0;"
   d="M214.567,207.418h-24.608c-0.868,0-1.577-0.71-1.577-1.577l0,0         c0-0.868,0.71-1.577,1.577-1.577h24.608c0.868,0,1.577,0.71,1.577,1.577l0,0         C216.145,206.708,215.435,207.418,214.567,207.418z"
   id="path29" />
							<path
   style="fill:#7E6CC0;"
   d="M272.491,207.418h-49.595c-0.868,0-1.577-0.71-1.577-1.577l0,0         c0-0.868,0.71-1.577,1.577-1.577h49.595c0.868,0,1.577,0.71,1.577,1.577l0,0         C274.068,206.708,273.358,207.418,272.491,207.418z"
   id="path30" />
						</g>
					</g>
					<g
   id="g38">
						<g
   id="g35">
							<path
   style="fill:#CCCCCC;"
   d="M276.592,319.152h-86.57c-0.902,0-1.641-0.738-1.641-1.641v0c0-0.902,0.738-1.641,1.641-1.641         h86.57c0.902,0,1.641,0.738,1.641,1.641v0C278.232,318.414,277.494,319.152,276.592,319.152z"
   id="path31" />
							<path
   style="fill:#CCCCCC;"
   d="M214.567,325.462h-24.608c-0.868,0-1.577-0.71-1.577-1.577l0,0         c0-0.868,0.71-1.577,1.577-1.577h24.608c0.868,0,1.577,0.71,1.577,1.577l0,0         C216.145,324.752,215.435,325.462,214.567,325.462z"
   id="path32" />
							<path
   style="fill:#CCCCCC;"
   d="M272.491,325.462h-49.595c-0.868,0-1.577-0.71-1.577-1.577l0,0         c0-0.868,0.71-1.577,1.577-1.577h49.595c0.868,0,1.577,0.71,1.577,1.577l0,0         C274.068,324.752,273.358,325.462,272.491,325.462z"
   id="path33" />
							<path
   style="fill:#CCCCCC;"
   d="M233.875,331.772h-43.916c-0.868,0-1.577-0.71-1.577-1.578l0,0         c0-0.867,0.71-1.577,1.577-1.577h43.916c0.868,0,1.577,0.71,1.577,1.577l0,0         C235.452,331.062,234.743,331.772,233.875,331.772z"
   id="path34" />
							<path
   style="fill:#CCCCCC;"
   d="M266.307,331.772h-22.589c-0.868,0-1.577-0.71-1.577-1.578l0,0         c0-0.867,0.71-1.577,1.577-1.577h22.589c0.868,0,1.577,0.71,1.577,1.577l0,0         C267.884,331.062,267.175,331.772,266.307,331.772z"
   id="path35" />
						</g>
						<g
   id="g37">
							<path
   style="fill:#7E6CC0;"
   d="M214.567,309.877h-24.608c-0.868,0-1.577-0.71-1.577-1.577l0,0         c0-0.868,0.71-1.577,1.577-1.577h24.608c0.868,0,1.577,0.71,1.577,1.577l0,0         C216.145,309.167,215.435,309.877,214.567,309.877z"
   id="path36" />
							<path
   style="fill:#7E6CC0;"
   d="M272.491,309.877h-49.595c-0.868,0-1.577-0.71-1.577-1.577l0,0         c0-0.868,0.71-1.577,1.577-1.577h49.595c0.868,0,1.577,0.71,1.577,1.577l0,0         C274.068,309.167,273.358,309.877,272.491,309.877z"
   id="path37" />
						</g>
					</g>
					<g
   id="g45">
						<g
   id="g42">
							<path
   style="fill:#CCCCCC;"
   d="M276.592,267.984h-86.57c-0.902,0-1.641-0.738-1.641-1.641l0,0         c0-0.902,0.738-1.641,1.641-1.641h86.57c0.902,0,1.641,0.738,1.641,1.641l0,0         C278.232,267.246,277.494,267.984,276.592,267.984z"
   id="path38" />
							<path
   style="fill:#CCCCCC;"
   d="M214.567,274.294h-24.608c-0.868,0-1.577-0.71-1.577-1.578l0,0         c0-0.868,0.71-1.577,1.577-1.577h24.608c0.868,0,1.577,0.71,1.577,1.577l0,0         C216.145,273.584,215.435,274.294,214.567,274.294z"
   id="path39" />
							<path
   style="fill:#CCCCCC;"
   d="M272.491,274.294h-49.595c-0.868,0-1.577-0.71-1.577-1.578l0,0         c0-0.868,0.71-1.577,1.577-1.577h49.595c0.868,0,1.577,0.71,1.577,1.577l0,0         C274.068,273.584,273.358,274.294,272.491,274.294z"
   id="path40" />
							<path
   style="fill:#CCCCCC;"
   d="M233.875,280.604h-43.916c-0.868,0-1.577-0.71-1.577-1.577l0,0         c0-0.868,0.71-1.577,1.577-1.577h43.916c0.868,0,1.577,0.71,1.577,1.577l0,0         C235.452,279.894,234.743,280.604,233.875,280.604z"
   id="path41" />
							<path
   style="fill:#CCCCCC;"
   d="M266.307,280.604h-22.589c-0.868,0-1.577-0.71-1.577-1.577l0,0         c0-0.868,0.71-1.577,1.577-1.577h22.589c0.868,0,1.577,0.71,1.577,1.577l0,0         C267.884,279.894,267.175,280.604,266.307,280.604z"
   id="path42" />
						</g>
						<g
   id="g44">
							<path
   style="fill:#7E6CC0;"
   d="M272.491,259.277h-24.608c-0.868,0-1.577-0.71-1.577-1.577l0,0         c0-0.868,0.71-1.577,1.577-1.577h24.608c0.868,0,1.577,0.71,1.577,1.577l0,0         C274.068,258.567,273.358,259.277,272.491,259.277z"
   id="path43" />
							<path
   style="fill:#7E6CC0;"
   d="M239.554,259.277h-49.595c-0.868,0-1.577-0.71-1.577-1.577l0,0         c0-0.868,0.71-1.577,1.577-1.577h49.595c0.868,0,1.577,0.71,1.577,1.577l0,0         C241.131,258.567,240.421,259.277,239.554,259.277z"
   id="path44" />
						</g>
					</g>
					<g
   id="g46">
						<rect
   x="244.735"
   y="151.611"
   style="fill:#7E6CC0;"
   width="33.065"
   height="33.065"
   id="rect45" />
						<path
   style="fill:#F3CF58;"
   d="M277.799,183.837v0.839h-32.405c1.726-6.163,6.852-10.905,13.223-12.083        c-3.496-1.271-6.003-4.616-6.003-8.558c0-5.028,4.083-9.111,9.111-9.111c5.033,0,9.116,4.083,9.116,9.111        c0,3.942-2.507,7.288-6.003,8.558C270.914,173.717,275.86,178.086,277.799,183.837z"
   id="path45" />
					</g>
					<path
   style="fill:#7E6CC0;"
   d="M314.72,125.181H190.13c-0.962,0-1.749,0.787-1.749,1.749l0,0c0,0.962,0.787,1.749,1.749,1.749       h124.59c0.962,0,1.749-0.787,1.749-1.749l0,0C316.469,125.968,315.682,125.181,314.72,125.181z"
   id="path46" />
					<path
   style="fill:#7E6CC0;"
   d="M271.167,132.877H189.8c-0.78,0-1.418,0.638-1.418,1.418v0.662c0,0.78,0.638,1.418,1.418,1.418       h81.368c0.78,0,1.418-0.638,1.418-1.418v-0.662C272.585,133.515,271.947,132.877,271.167,132.877z"
   id="path47" />
					<g
   id="g48">
						<polygon
   style="fill:none;"
   points="295.539,277.498 295.539,277.498 295.541,277.504       "
   id="polygon47" />
						<path
   style="fill:none;stroke:#7E6CC0;stroke-width:0;stroke-linecap:round;stroke-linejoin:round;"
   d="M295.539,277.498        c-0.009-0.042-0.018-0.083-0.027-0.125"
   id="path48" />
						
							<line
   style="fill:none;stroke:#7E6CC0;stroke-width:0;stroke-linecap:round;stroke-linejoin:round;"
   x1="295.539"
   y1="277.498"
   x2="295.539"
   y2="277.498"
   id="line48" />
					</g>
					<path
   style="fill:#7E6CC0;"
   d="M312.711,273.707l13.3-11.44l0.03-0.02c-1.61-1.87-3.56-3.36-5.74-4.39       c-0.25-0.12-0.5-0.23-0.75-0.34c-0.01-0.02-0.02-0.02-0.04-0.02c-0.2-0.08-0.4-0.16-0.6-0.24c-0.12-0.05-0.25-0.1-0.37-0.13       c-0.21-0.08-0.42-0.15-0.63-0.21c-0.27-0.09-0.55-0.17-0.83-0.24c-0.27-0.07-0.54-0.14-0.82-0.19       c-0.85-0.18-1.72-0.3-2.59-0.34c-0.32-0.02-0.64-0.03-0.96-0.03c-4.83,0-9.23,1.99-12.41,5.18c-0.4,0.4-0.78,0.82-1.14,1.25       c-0.36,0.43-0.69,0.88-1.02,1.35c0,0.01,0,0.01,0,0.01c-0.31,0.46-0.61,0.95-0.88,1.44c-0.28,0.5-0.52,1.02-0.75,1.54       c-0.22,0.53-0.42,1.06-0.59,1.61c-0.59,1.88-0.87,3.89-0.78,5.97c0.01,0.26,0.03,0.52,0.05,0.77c0.01,0.18,0.03,0.36,0.06,0.54       c0.01,0.15,0.03,0.3,0.05,0.45c0.01,0.09,0.02,0.17,0.04,0.26c0.02,0.1,0.03,0.21,0.05,0.31       c0.034,0.193,0.081,0.382,0.121,0.573c0.009,0.042,0.017,0.085,0.027,0.127c-0.009-0.042-0.018-0.083-0.027-0.125       c0.009,0.042,0.017,0.083,0.027,0.125c0,0.002,0.001,0.004,0.002,0.006c0-0.002-0.001-0.004-0.002-0.006       c0.069,0.309,0.145,0.617,0.232,0.919c0.004,0.015,0.009,0.029,0.013,0.043c0.054,0.191,0.114,0.38,0.174,0.568       c0.001,0.003,0.002,0.005,0.003,0.008c0.003,0.011,0.008,0.021,0.011,0.032c1.72,5.362,5.989,9.646,11.349,11.368       c-0.24-0.08-0.48-0.17-0.72-0.26c0.399,0.154,0.798,0.279,1.197,0.399c-0.152-0.045-0.306-0.081-0.457-0.129       c0.19,0.06,0.38,0.12,0.58,0.17c0.22,0.07,0.44,0.13,0.66,0.18c0.03,0,0.06,0.01,0.09,0.02c0.23,0.05,0.47,0.11,0.71,0.15       c0.07,0.02,0.15,0.04,0.23,0.05c0.12,0.02,0.25,0.04,0.37,0.06c0.05,0.01,0.1,0.02,0.15,0.02c0.18,0.03,0.37,0.05,0.55,0.07       c0.16,0.02,0.32,0.04,0.48,0.05h0.03c0.25,0.03,0.5,0.04,0.75,0.05c0.26,0.02,0.52,0.02,0.77,0.02c4.35,0,8.35-1.61,11.43-4.27       l0.02,0.02c1.82-1.56,3.28-3.46,4.3-5.57c0.15-0.3,0.3-0.61,0.43-0.92c0.01-0.02,0.01-0.03,0.02-0.04       c0.08-0.2,0.16-0.4,0.24-0.6c0.13-0.35,0.25-0.7,0.36-1.06c0.08-0.26,0.16-0.51,0.22-0.77c0.07-0.25,0.13-0.51,0.18-0.77       c0.19-0.86,0.3-1.74,0.35-2.64c0.02-0.32,0.03-0.64,0.03-0.96H312.711z"
   id="path49" />
					<path
   style="fill:#F3CF58;"
   d="M330.291,273.707c0-4.36-1.61-8.36-4.28-11.44l-13.3,11.44H330.291z"
   id="path50" />
					<g
   id="g55">
						<g
   id="g54">
							<path
   style="fill:#F3CF58;"
   d="M303.042,202.835L303.042,202.835c-1.533,0-2.775,1.242-2.775,2.775v28.499h5.55V205.61         C305.817,204.078,304.574,202.835,303.042,202.835z"
   id="path51" />
							<path
   style="fill:#7E6CC0;"
   d="M309.837,209.212L309.837,209.212c-1.532,0-2.775,1.242-2.775,2.775v22.122h5.55v-22.122         C312.612,210.455,311.369,209.212,309.837,209.212z"
   id="path52" />
							<path
   style="fill:#F3CF58;"
   d="M316.616,215.419L316.616,215.419c-1.533,0-2.775,1.242-2.775,2.775v15.915h5.55v-15.915         C319.39,216.662,318.148,215.419,316.616,215.419z"
   id="path53" />
							<path
   style="fill:#7E6CC0;"
   d="M324.015,220.002L324.015,220.002c-1.533,0-2.775,1.242-2.775,2.775v11.332h5.55v-11.332         C326.79,221.245,325.548,220.002,324.015,220.002z"
   id="path54" />
						</g>
						<path
   style="fill:#7E6CC0;"
   d="M328.177,236.594h-30.942c-0.913,0-1.654-0.74-1.654-1.654l0,0c0-0.913,0.74-1.654,1.654-1.654        h30.942c0.913,0,1.654,0.74,1.654,1.654l0,0C329.831,235.854,329.091,236.594,328.177,236.594z"
   id="path55" />
					</g>
					<g
   id="g56">
						<rect
   x="190.327"
   y="151.611"
   style="fill:#7E6CC0;"
   width="33.646"
   height="33.646"
   id="rect55" />
						<path
   style="fill:#F3CF58;"
   d="M189.435,167.86L189.435,167.86c-1.366,1.32-1.41,3.495-0.097,4.868l9.919,10.377        c1.271,1.33,3.415,1.263,4.601-0.144l21.373-25.357c1.135-1.346,0.828-3.383-0.653-4.335l0,0        c-1.214-0.781-2.817-0.556-3.77,0.528l-19.17,21.81l-7.309-7.649C193.007,166.575,190.812,166.531,189.435,167.86z"
   id="path56" />
					</g>
					<g
   id="g57">
						<rect
   x="295.883"
   y="151.611"
   style="fill:#7E6CC0;"
   width="33.646"
   height="33.646"
   id="rect56" />
						<path
   style="fill:#F3CF58;"
   d="M294.991,167.86L294.991,167.86c-1.366,1.32-1.41,3.495-0.097,4.868l9.919,10.377        c1.271,1.33,3.415,1.263,4.601-0.144l21.373-25.357c1.135-1.346,0.828-3.383-0.653-4.335l0,0        c-1.214-0.781-2.817-0.556-3.77,0.528l-19.17,21.81l-7.309-7.649C298.563,166.575,296.368,166.531,294.991,167.86z"
   id="path57" />
					</g>
					<path
   style="fill:#7E6CC0;"
   d="M312.719,318.904l16.554-6.72c-1.609-3.963-4.582-7.215-8.385-9.174l-8.177,15.896       L312.719,318.904z"
   id="path58" />
					<path
   style="fill:#F3CF58;"
   d="M329.735,313.453c-0.071-0.221-0.15-0.441-0.23-0.661c-0.075-0.204-0.131-0.411-0.214-0.615       l-0.018,0.007l-16.554,6.72l-0.008,0.003l0-0.001l8.177-15.896l0.012-0.024c-0.23-0.118-0.47-0.207-0.704-0.314       c-0.261-0.12-0.521-0.244-0.787-0.351c-0.284-0.114-0.571-0.213-0.859-0.312c-0.309-0.106-0.617-0.211-0.93-0.3       c-0.286-0.082-0.574-0.15-0.864-0.217c-0.303-0.07-0.607-0.135-0.913-0.19c-0.326-0.058-0.652-0.104-0.98-0.144       c-0.246-0.03-0.493-0.053-0.741-0.073c-0.402-0.032-0.803-0.051-1.206-0.056c-0.141-0.002-0.281,0.002-0.422,0.003       c-2.214,0.025-4.429,0.434-6.524,1.284c-2.109,0.858-3.955,2.094-5.521,3.581c-0.091,0.087-0.19,0.166-0.28,0.255       c-0.158,0.156-0.303,0.323-0.454,0.484c-2.941,3.14-4.677,7.26-4.865,11.558c-0.009,0.199-0.026,0.397-0.028,0.597       c-0.002,0.157,0.013,0.316,0.015,0.473c0.035,2.133,0.436,4.289,1.282,6.372c0.82,2.023,1.993,3.8,3.398,5.324       c0.161,0.175,0.313,0.359,0.48,0.527c0.076,0.077,0.158,0.146,0.236,0.221c3.19,3.081,7.445,4.89,11.876,5.059       c0.153,0.006,0.305,0.019,0.459,0.021c0.185,0.002,0.371-0.014,0.557-0.018c2.114-0.04,4.25-0.438,6.314-1.275       c2.084-0.847,3.909-2.065,5.463-3.529c0.115-0.108,0.239-0.209,0.351-0.32c0.136-0.135,0.26-0.278,0.391-0.417       c1.488-1.576,2.684-3.394,3.519-5.369C330.788,322.025,331.075,317.633,329.735,313.453z"
   id="path59" />
				</g>
			</g>
		</g>
	</g>
	<g
   id="g67">
		<g
   id="g66">
			<polygon
   style="fill:#DC8987;"
   points="314.419,173.292 322.822,176.65 331.213,180.001 327.084,160.382 320.766,166.829    "
   id="polygon62" />
			<path
   style="fill:#3E245C;"
   d="M314.419,173.292l8.403,3.359c-0.628-3.034-1.441-6.9-2.056-9.822L314.419,173.292z"
   id="path62" />
			<g
   id="g65">
				
					<linearGradient
   id="SVGID_00000161595448213833842880000007189879839163021740_"
   gradientUnits="userSpaceOnUse"
   x1="389.2039"
   y1="143.703"
   x2="395.7058"
   y2="177.8875">
					<stop
   offset="0"
   style="stop-color:#EEECFE"
   id="stop62" />
					<stop
   offset="0.4837"
   style="stop-color:#F3CF58"
   id="stop63" />
				</linearGradient>
				<polygon
   style="fill:url(#SVGID_00000161595448213833842880000007189879839163021740_);"
   points="327.084,160.382       331.213,180.001 456.389,153.659 452.261,134.04     "
   id="polygon63" />
				
					<rect
   x="454.274"
   y="133.332"
   transform="matrix(0.9786 -0.2059 0.2059 0.9786 -19.7337 97.1137)"
   style="fill:#3E245C;"
   width="4.781"
   height="20.049"
   id="rect63" />
				
					<linearGradient
   id="SVGID_00000106146175328032454830000008919800258505645444_"
   gradientUnits="userSpaceOnUse"
   x1="466.4097"
   y1="128.4782"
   x2="467.9097"
   y2="155.9782">
					<stop
   offset="0"
   style="stop-color:#F3CF58"
   id="stop64" />
					<stop
   offset="0.9974"
   style="stop-color:#E16F5A"
   id="stop65" />
				</linearGradient>
				<path
   style="fill:url(#SVGID_00000106146175328032454830000008919800258505645444_);"
   d="M456.94,133.055l4.129,19.619      l0.231-0.049c1.212-0.255,4.374-0.929,7.657-1.631c5.271-1.126,8.682-6.251,7.685-11.548l0,0      c-1.006-5.344-6.123-8.891-11.478-7.944c-2.953,0.522-5.954,1.074-7.992,1.503L456.94,133.055z"
   id="path65" />
			</g>
		</g>
	</g>
	<g
   id="g128">
		<path
   style="fill:#EEECFE;"
   d="M180.856,446.199c0,3.178-24.746,5.755-55.271,5.755s-55.271-2.576-55.271-5.755    c0-3.178,24.746-5.755,55.271-5.755S180.856,443.021,180.856,446.199z"
   id="path67" />
		<g
   id="g127">
			<g
   id="g121">
				<path
   style="fill:#E89FAB;"
   d="M174.785,206.477c-1.189,0.52-2.19,1.099-2.868,1.526c-0.348-7.347-2.518-5.213-2.518-5.213      l0.175,7.974l0.027-0.021l-0.253,4.377l3.829,0.58c2.767,0.64,4.583,0.202,5.749-0.487c0.015-0.009,0.029-0.017,0.044-0.026      c1.181-0.714,1.863-2.032,1.912-3.411l0.041-1.151C181.04,207.4,177.74,205.183,174.785,206.477z"
   id="path68" />
				
					<linearGradient
   id="SVGID_00000121246869494099713520000014143905840592691330_"
   gradientUnits="userSpaceOnUse"
   x1="89.6599"
   y1="268.3146"
   x2="78.6623"
   y2="345.2982">
					<stop
   offset="0.0026"
   style="stop-color:#E16F5A"
   id="stop68" />
					<stop
   offset="0.2115"
   style="stop-color:#E2735A"
   id="stop69" />
					<stop
   offset="0.4137"
   style="stop-color:#E47F5A"
   id="stop70" />
					<stop
   offset="0.6132"
   style="stop-color:#E89259"
   id="stop71" />
					<stop
   offset="0.8097"
   style="stop-color:#EDAD59"
   id="stop72" />
					<stop
   offset="1"
   style="stop-color:#F3CF58"
   id="stop73" />
				</linearGradient>
				<path
   style="fill:url(#SVGID_00000121246869494099713520000014143905840592691330_);"
   d="M99.63,249.81l-23.511,37.081      c-0.14,0.221-0.275,0.445-0.404,0.672c-2.187,3.831-2.559,8.438-1.281,12.661l7.855,36.258l7.799-1.481l-6.632-35.192      c0.164-3.156,1.209-6.203,3.018-8.795l15.358-22.011L99.63,249.81z"
   id="path73" />
				<g
   id="g84">
					<g
   id="g83">
						
							<rect
   x="71.066"
   y="321.622"
   transform="matrix(0.9523 -0.3051 0.3051 0.9523 -97.1659 42.3211)"
   style="fill:#E16F5A;"
   width="31.521"
   height="20.855"
   id="rect73" />
						<g
   id="g82">
							
								<rect
   x="72.223"
   y="322.853"
   transform="matrix(0.9523 -0.3051 0.3051 0.9523 -97.1657 42.3209)"
   style="fill:#EEECFE;"
   width="29.205"
   height="18.393"
   id="rect74" />
							<g
   id="g81">
								<path
   style="fill:#999999;"
   d="M78.538,342.48L78.538,342.48c-0.258,0.083-0.535-0.058-0.618-0.316l-4.238-13.106          c-0.083-0.258,0.058-0.535,0.316-0.618l0,0c0.258-0.083,0.535,0.058,0.618,0.316l4.237,13.106          C78.937,342.12,78.796,342.397,78.538,342.48z"
   id="path74" />
								<path
   style="fill:#999999;"
   d="M81.548,341.507L81.548,341.507c-0.258,0.083-0.535-0.058-0.618-0.316l-4.237-13.106          c-0.083-0.258,0.058-0.535,0.316-0.618l0,0c0.258-0.083,0.535,0.058,0.618,0.316l4.238,13.106          C81.947,341.147,81.805,341.424,81.548,341.507z"
   id="path75" />
								<path
   style="fill:#999999;"
   d="M84.557,340.534L84.557,340.534c-0.258,0.083-0.535-0.058-0.618-0.316l-4.237-13.106          c-0.083-0.258,0.058-0.535,0.316-0.618l0,0c0.258-0.083,0.535,0.058,0.618,0.316l4.237,13.106          C84.957,340.174,84.815,340.451,84.557,340.534z"
   id="path76" />
								<path
   style="fill:#999999;"
   d="M87.567,339.561L87.567,339.561c-0.258,0.083-0.535-0.058-0.618-0.316l-4.237-13.106          c-0.083-0.258,0.058-0.535,0.316-0.618l0,0c0.258-0.083,0.535,0.058,0.618,0.316l4.238,13.106          C87.967,339.201,87.825,339.477,87.567,339.561z"
   id="path77" />
								<path
   style="fill:#999999;"
   d="M90.577,338.588L90.577,338.588c-0.258,0.083-0.535-0.058-0.618-0.316l-4.237-13.106          c-0.083-0.258,0.058-0.535,0.316-0.618l0,0c0.258-0.083,0.535,0.058,0.618,0.316l4.237,13.106          C90.977,338.228,90.835,338.504,90.577,338.588z"
   id="path78" />
								<path
   style="fill:#999999;"
   d="M93.587,337.614L93.587,337.614c-0.258,0.083-0.535-0.058-0.618-0.316l-4.237-13.106          c-0.083-0.258,0.058-0.535,0.316-0.618l0,0c0.258-0.083,0.535,0.058,0.618,0.316l4.238,13.106          C93.986,337.254,93.845,337.531,93.587,337.614z"
   id="path79" />
								<path
   style="fill:#999999;"
   d="M96.597,336.641L96.597,336.641c-0.258,0.083-0.535-0.058-0.618-0.316l-4.238-13.106          c-0.083-0.258,0.058-0.535,0.316-0.618l0,0c0.258-0.083,0.535,0.058,0.618,0.316l4.237,13.106          C96.996,336.281,96.855,336.558,96.597,336.641z"
   id="path80" />
								<path
   style="fill:#999999;"
   d="M99.607,335.668L99.607,335.668c-0.258,0.083-0.535-0.058-0.618-0.316l-4.237-13.106          c-0.083-0.258,0.058-0.535,0.316-0.618l0,0c0.258-0.083,0.535,0.058,0.618,0.316l4.237,13.106          C100.006,335.308,99.864,335.585,99.607,335.668z"
   id="path81" />
							</g>
						</g>
					</g>
					<path
   style="fill:#E89FAB;"
   d="M84.978,335.646c-0.096,0.045-0.204,0.112-0.319,0.195c-0.929,0.674-1.333,1.861-1.099,2.984       l0.17,0.818c-0.051,1.891,1.375,3.53,3.262,3.663c1.479,0.104,3.09-0.217,4.828-0.941c0.428-0.178,0.763-0.523,0.946-0.949       c0.471-1.1,1.398-3.986-0.115-6.383c-0.111-0.175-0.291-0.299-0.49-0.356l0,0c-0.552-0.157-1.102,0.254-1.101,0.827       c0.001,1.014-0.098,2.437-0.607,3.151l-0.521-2.41c-0.2-0.922-1.075-1.529-2.01-1.401       C87.031,334.968,85.928,335.201,84.978,335.646z"
   id="path83" />
				</g>
				<g
   id="g99">
					
						<linearGradient
   id="SVGID_00000155138195899698634400000014971541367754339003_"
   gradientUnits="userSpaceOnUse"
   x1="125.3389"
   y1="456.3329"
   x2="168.2375"
   y2="436.2963">
						<stop
   offset="0.0026"
   style="stop-color:#E16F5A"
   id="stop84" />
						<stop
   offset="0.3814"
   style="stop-color:#E1715A"
   id="stop85" />
						<stop
   offset="0.5573"
   style="stop-color:#E3795A"
   id="stop86" />
						<stop
   offset="0.6913"
   style="stop-color:#E5855A"
   id="stop87" />
						<stop
   offset="0.8041"
   style="stop-color:#E99859"
   id="stop88" />
						<stop
   offset="0.9025"
   style="stop-color:#EDAF59"
   id="stop89" />
						<stop
   offset="0.9913"
   style="stop-color:#F2CC58"
   id="stop90" />
						<stop
   offset="1"
   style="stop-color:#F3CF58"
   id="stop91" />
					</linearGradient>
					<path
   style="fill:url(#SVGID_00000155138195899698634400000014971541367754339003_);"
   d="M146.343,434.247       c-0.163,0.569-2.921,3.209-2.905,9.201c0.005,2.035,1.669,3.681,3.705,3.681h24.183c1.356-4.246-0.331-4.716-4.099-5.563       c-7.261-0.522-11.714-3.127-13.37-7.807L146.343,434.247z"
   id="path91" />
					
						<linearGradient
   id="SVGID_00000121266115776309647760000006667615698667287449_"
   gradientUnits="userSpaceOnUse"
   x1="60.6634"
   y1="456.5486"
   x2="103.562"
   y2="436.5121">
						<stop
   offset="0.0026"
   style="stop-color:#E16F5A"
   id="stop92" />
						<stop
   offset="0.3814"
   style="stop-color:#E1715A"
   id="stop93" />
						<stop
   offset="0.5573"
   style="stop-color:#E3795A"
   id="stop94" />
						<stop
   offset="0.6913"
   style="stop-color:#E5855A"
   id="stop95" />
						<stop
   offset="0.8041"
   style="stop-color:#E99859"
   id="stop96" />
						<stop
   offset="0.9025"
   style="stop-color:#EDAF59"
   id="stop97" />
						<stop
   offset="0.9913"
   style="stop-color:#F2CC58"
   id="stop98" />
						<stop
   offset="1"
   style="stop-color:#F3CF58"
   id="stop99" />
					</linearGradient>
					<path
   style="fill:url(#SVGID_00000121266115776309647760000006667615698667287449_);"
   d="M82.13,434.247       c-0.163,0.569-2.921,3.209-2.905,9.201c0.005,2.035,1.669,3.681,3.705,3.681h24.183c1.356-4.246-0.331-4.716-4.099-5.563       c-7.261-0.522-11.715-3.127-13.37-7.807L82.13,434.247z"
   id="path99" />
				</g>
				<g
   id="g111">
					
						<linearGradient
   id="SVGID_00000148653774268921441130000008770543336292034436_"
   gradientUnits="userSpaceOnUse"
   x1="93.4348"
   y1="371.6623"
   x2="121.6059"
   y2="392.0764">
						<stop
   offset="0.0214"
   style="stop-color:#3E345C"
   id="stop100" />
						<stop
   offset="0.1871"
   style="stop-color:#423762"
   id="stop101" />
						<stop
   offset="0.406"
   style="stop-color:#4C4172"
   id="stop102" />
						<stop
   offset="0.6546"
   style="stop-color:#5E508E"
   id="stop103" />
						<stop
   offset="0.9232"
   style="stop-color:#7665B4"
   id="stop104" />
						<stop
   offset="1"
   style="stop-color:#7E6CC0"
   id="stop105" />
					</linearGradient>
					<path
   style="fill:url(#SVGID_00000148653774268921441130000008770543336292034436_);"
   d="M98.996,320.528       c-0.772,0.528-1.216,14.645-1.465,28.087c-0.305,16.499-2.914,32.874-7.728,48.658l-11.392,37.348l12.89,1.611l17.255-46.315       c3.288-8.826,5.872-17.899,7.728-27.134l8.491-42.256H98.996z"
   id="path105" />
					
						<linearGradient
   id="SVGID_00000174595457346123670850000007207297549603784882_"
   gradientUnits="userSpaceOnUse"
   x1="129.038"
   y1="377.8122"
   x2="159.6223"
   y2="380.6573">
						<stop
   offset="0.0214"
   style="stop-color:#3E345C"
   id="stop106" />
						<stop
   offset="0.1909"
   style="stop-color:#413761"
   id="stop107" />
						<stop
   offset="0.4032"
   style="stop-color:#4B4071"
   id="stop108" />
						<stop
   offset="0.6383"
   style="stop-color:#5C4E8A"
   id="stop109" />
						<stop
   offset="0.8881"
   style="stop-color:#7262AE"
   id="stop110" />
						<stop
   offset="1"
   style="stop-color:#7E6CC0"
   id="stop111" />
					</linearGradient>
					<path
   style="fill:url(#SVGID_00000174595457346123670850000007207297549603784882_);"
   d="M113.498,320.528L113.498,320.528       c-0.135,0.517-0.257,1.036-0.366,1.556c-2.338,11.156,1.981,22.673,10.624,30.103l1.512,1.3       c3.65,10.68,8.012,27.629,9.972,38.743l7.529,42.697h12.353l-14.647-111.475L113.498,320.528z"
   id="path111" />
				</g>
				<g
   id="g112">
					<path
   style="fill:#3E245C;"
   d="M102.401,227.43c-0.251,1.658,1.05,4.31,1.879,5.761c0.847,1.481,0.886,1.533,2.217,2.54       c1.878,1.42,4.843,2.454,7.209,2.019c1.464-0.27,3.649-0.998,4.436-2.28c0.66-1.074,0.531-2.819,0.437-4.017       c-0.14-1.794-0.109-3.831-1.004-5.416c-1.342-2.377-2.936-4.259-5.819-4.587c-2.305-0.262-6.377-0.258-7.382,2.39"
   id="path112" />
				</g>
				<path
   style="fill:#DC8987;"
   d="M123.786,236.273c0.156,0.624-2.964,10.92-1.092,14.508l-12.168-0.78      c0,0,4.836-2.184,5.46-21.371L123.786,236.273z"
   id="path113" />
				
					<linearGradient
   id="SVGID_00000115513766216118259060000014639721055061242282_"
   gradientUnits="userSpaceOnUse"
   x1="106.1664"
   y1="296.0203"
   x2="184.2151"
   y2="241.752">
					<stop
   offset="0.0026"
   style="stop-color:#E16F5A"
   id="stop113" />
					<stop
   offset="1"
   style="stop-color:#F3CF58"
   id="stop114" />
				</linearGradient>
				<path
   style="fill:url(#SVGID_00000115513766216118259060000014639721055061242282_);"
   d="M97.241,323.45      c3.568-10.968,5.361-22.396,5.361-33.857c0-6.15-0.518-12.3-1.554-18.4l-2.754-16.148c-0.501-4.037,2.343-7.728,6.372-8.279      l9.562-1.291h8.756l2.861,0.806l10.606,3.001c0.608,11.223-3.494,26.211-2.787,39.292c0.649,11.946,6.109,21.862,6.816,34.877      H97.241z"
   id="path114" />
				
					<linearGradient
   id="SVGID_00000002381291778219658640000011116904246196101293_"
   gradientUnits="userSpaceOnUse"
   x1="95.851"
   y1="283.4182"
   x2="173.8992"
   y2="229.1502"
   gradientTransform="matrix(1.0216 -0.1136 0.1428 1.0437 -36.6789 8.0571)">
					<stop
   offset="0.0026"
   style="stop-color:#E16F5A"
   id="stop115" />
					<stop
   offset="1"
   style="stop-color:#F3CF58"
   id="stop116" />
				</linearGradient>
				<path
   style="fill:url(#SVGID_00000002381291778219658640000011116904246196101293_);"
   d="M178.534,216.228l-4.525,23.386      l-0.012,0.05c-1.484,7.853-7.033,14.295-14.683,16.703l-14.689,4.619c-5.287,1.663-11.075,1.068-16.058-1.649v0      c-4.05-2.208-3.44-8.255,0.94-9.325l0,0c0.98-0.239,1.971-0.434,2.97-0.583l20.452-3.049      c5.629-0.846,10.177-4.927,11.682-10.494l3.982-21.311l1.713,0.285l4.786,0.794L178.534,216.228z"
   id="path116" />
				<path
   style="fill:#F3CF58;"
   d="M110.526,245.979l0.808-2.643c0.032-0.104,0.071-0.204,0.118-0.299      c0.429-0.867,1.544-1.046,2.367-0.538c1.723,1.063,6.066,1.284,8.631-0.105c1.04-0.564,2.395-0.033,2.629,1.127      c0.002,0.009,0.004,0.018,0.006,0.028l0.499,2.664C119.994,248.991,114.975,248.912,110.526,245.979z"
   id="path117" />
				<path
   style="fill:#E89FAB;"
   d="M123.107,214.215c0.102,0.457,3.083,5.226,3.711,7.324l5.738,5.593c0,0,0.428,0.467-1.838,1.772      c0,0,0.772,4.231,0.628,7.382c-0.084,1.85-1.682,3.288-3.531,3.199c-2.897-0.14-7.152-0.886-10.981-7.197      c0,0-6.266,3.104-6.847-5.237c0,0-1.961-10.824,3.796-5.076l2.158,1.671L123.107,214.215z"
   id="path118" />
				<path
   style="fill:#3E245C;"
   d="M125.872,223.367c0.272,0.737,0.222,1.435-0.112,1.559c-0.334,0.123-0.825-0.375-1.098-1.112      c-0.272-0.738-0.222-1.435,0.112-1.559C125.109,222.131,125.6,222.629,125.872,223.367z"
   id="path119" />
				<g
   id="g120">
					<path
   style="fill:#3E245C;"
   d="M129.527,231.27c-1.937,0.432-3.548-1.441-3.622-1.527c-0.086-0.101-0.073-0.253,0.028-0.338       c0.101-0.086,0.252-0.073,0.339,0.028c0.018,0.02,1.75,2.027,3.577,1.229c0.125-0.052,0.263,0.003,0.316,0.124       c0.053,0.121-0.003,0.263-0.124,0.316C129.868,231.177,129.697,231.232,129.527,231.27z"
   id="path120" />
				</g>
				<path
   style="fill:#3E245C;"
   d="M122.651,223.51c0,0,0.657-2.296,2.533-2.9c0.342-0.11,0.502-0.501,0.332-0.818l0,0      c-0.151-0.281-0.506-0.396-0.781-0.234C124.132,219.912,123.177,220.878,122.651,223.51z"
   id="path121" />
			</g>
			<g
   id="g124">
				<g
   id="g123">
					
						<linearGradient
   id="SVGID_00000062154447255155087210000017125439961819346101_"
   gradientUnits="userSpaceOnUse"
   x1="115.4842"
   y1="225.8943"
   x2="150.9843"
   y2="200.3942">
						<stop
   offset="0.0214"
   style="stop-color:#3E345C"
   id="stop121" />
						<stop
   offset="0.2515"
   style="stop-color:#4E4274"
   id="stop122" />
						<stop
   offset="1"
   style="stop-color:#7E6CC0"
   id="stop123" />
					</linearGradient>
					<path
   style="fill:url(#SVGID_00000062154447255155087210000017125439961819346101_);"
   d="M130.038,213.673       c-0.354-3.404-4.242-7.696-7.794-7.876c-1.612-0.074-3.017-0.033-4.538,0.46c-1.759,0.575-4.292,1.521-4.917,3.543       c-0.321,1.028-0.354,2.532-1.464,2.845c-2.401,0.682-4.473,0.937-6.536,2.524c-1.965,1.505-3.527,3.609-3.708,6.125       c-0.197,2.787,0.485,6.898,1.48,9.62c1.354,3.684,6.377,7.227,10.927,7.339c-0.008,0.052-0.002,0.102-0.016,0.155       c-0.264,0.992-1.329,1.389-1.871,2.184c1.367,0.505,3.153-0.292,4.242-1.112c1.179,1.64,2.98,1.365,4.679,1.708       c-0.835-0.487-1.386-2.265-1.202-3.023c0.329-1.36,1.469-2.397,1.835-3.813c0.226-0.874,0.363-2.048-0.023-2.869       c0.058-0.251,0.118-0.499,0.166-0.766c-0.921-0.14-1.833-0.871-2.335-1.973c-0.699-1.546-0.304-3.239,0.888-3.782       c0.543-0.247,1.151-0.214,1.727,0.041c-0.066-1.258-0.206-2.631-0.436-4.111c0.617-0.263,1.381-1.587,1.743-2.047       c0.436-0.551,0.814-1.628,1.422-1.965c0.403,0.329,1.644,2.615,1.644,2.615c1.266,0.099,3.56-5.961,2.688-7.622       C129.174,212.424,129.643,213.024,130.038,213.673z"
   id="path123" />
				</g>
			</g>
			<g
   id="g126">
				<g
   id="g125">
					
						<linearGradient
   id="SVGID_00000127018643328940598960000009565018355580178848_"
   gradientUnits="userSpaceOnUse"
   x1="102.5973"
   y1="223.2617"
   x2="121.8828"
   y2="223.2617">
						<stop
   offset="0"
   style="stop-color:#F3CF58"
   id="stop124" />
						<stop
   offset="0.9974"
   style="stop-color:#E16F5A"
   id="stop125" />
					</linearGradient>
					<path
   style="fill:url(#SVGID_00000127018643328940598960000009565018355580178848_);"
   d="M113.992,208.613       c-0.212,0-1.007-0.021-1.399-0.003c-2.468,0.113-11.494,1.515-14,9.335c-3.658,11.411,3.792,16.463,5.892,17.77       c0.97,0.604,1.971,1.087,3.006,1.598c0.49,0.242,1.087,0.572,1.65,0.604c0.744,0.042,0.821-0.251,1.313-0.818       c1.471-1.698,2.779-3.797,3.564-5.866c0.904-2.383,1.782-4.95,2.282-7.439c0.473-2.353,0.54-4.826,0.583-7.237       C116.966,211.801,113.992,208.613,113.992,208.613z"
   id="path125" />
				</g>
				<path
   style="fill:#E16F5A;"
   d="M108.996,237.371c0,0-1.894,1.581,0.576,2.117c0,0,4.327-0.216,7.831-11.885      c0.055-0.184,0.11-0.371,0.165-0.561c2.237-6.928,1.528-13.495-1.82-19.738c0,0-2.057-1.144-2.47,1.288      C118.052,216.844,115.525,226.675,108.996,237.371z"
   id="path126" />
			</g>
		</g>
	</g>
</g>

</svg>
