<?xml version="1.0" encoding="UTF-8" standalone="no"?>
<!-- Uploaded to: SVG Repo, www.svgrepo.com, Transformed by: SVG Repo Mixer Tools -->

<svg
   width="800"
   height="800"
   viewBox="0 0 20 20"
   version="1.1"
   fill="#ffffff"
   id="svg1"
   xml:space="preserve"
   xmlns="http://www.w3.org/2000/svg"
   xmlns:svg="http://www.w3.org/2000/svg"><defs
     id="defs2" /><g
     id="g9"
     transform="translate(-87.824997,-0.32499999)"><path
       d="m 92.51499,4.1092773 8.76875,12.4314457 h 1.90469 L 94.419775,4.1092773 Z"
       style="baseline-shift:baseline;display:inline;overflow:visible;vector-effect:none;enable-background:accumulate;stop-color:#000000;stop-opacity:1"
       id="path9" /><path
       d="M 90.047217,0.325 C 88.819917,0.325 87.825,1.3199173 87.825,2.5472168 V 18.102783 c 0,1.2273 0.994917,2.222217 2.222217,2.222217 h 15.555563 c 1.2273,0 2.22222,-0.994918 2.22222,-2.222217 V 2.5472168 C 107.825,1.3199173 106.83008,0.325 105.60278,0.325 Z m 0.08828,2.5411621 h 4.93374 l 3.503614,4.9786621 4.251369,-4.9786621 h 1.55395 l -5.103659,5.9753418 6.293409,8.9423341 h -4.93252 l -4.065674,-5.776221 -4.933741,5.776221 H 90.08208 l 5.785938,-6.7729 z"
       style="baseline-shift:baseline;display:inline;overflow:visible;vector-effect:none;enable-background:accumulate;stop-color:#000000;stop-opacity:1"
       id="path8" /></g></svg>
